<svg xmlns="http://www.w3.org/2000/svg" xmlns:xlink="http://www.w3.org/1999/xlink" width="512" zoomAndPan="magnify" viewBox="0 0 384 383.999986" height="512" preserveAspectRatio="xMidYMid meet" version="1.0"><defs><clipPath id="8dbb580f0b"><path d="M 3 1.015625 L 271 1.015625 L 271 315 L 3 315 Z M 3 1.015625 " clip-rule="nonzero"/></clipPath><clipPath id="731bf7acbf"><path d="M 11 10 L 263 10 L 263 305.90625 L 11 305.90625 Z M 11 10 " clip-rule="nonzero"/></clipPath><clipPath id="2c4a3b6afe"><path d="M 41.429688 114.15625 L 232.128906 114.15625 L 232.128906 201.285156 L 41.429688 201.285156 Z M 41.429688 114.15625 " clip-rule="nonzero"/></clipPath><clipPath id="ccd096bfd3"><rect x="0" width="276" y="0" height="316"/></clipPath></defs><g transform="matrix(1, 0, 0, 1, 55, 34)"><g clip-path="url(#ccd096bfd3)"><g clip-path="url(#8dbb580f0b)"><path fill="#ffffff" d="M 136.964844 1.066406 L 102.648438 17.675781 L 71.007812 4.886719 L 9.773438 25.757812 C 9.773438 25.757812 25.925781 58.050781 22.5625 92.371094 C 19.195312 126.691406 -7.839844 209.480469 9.101562 235.707031 C 29.960938 268.007812 88.507812 286.84375 108.699219 297.617188 C 120.007812 303.648438 130.132812 310.234375 136.964844 314.929688 C 143.792969 310.234375 153.917969 303.648438 165.226562 297.617188 C 185.414062 286.847656 243.960938 268.011719 264.824219 235.707031 C 281.765625 209.476562 254.730469 126.6875 251.367188 92.371094 C 248 58.054688 264.152344 25.757812 264.152344 25.757812 L 202.917969 4.886719 L 171.277344 17.675781 Z M 136.964844 1.066406 " fill-opacity="1" fill-rule="nonzero"/></g><g clip-path="url(#731bf7acbf)"><path fill="#000000" d="M 136.886719 10.042969 L 104.554688 25.699219 L 74.738281 13.644531 L 17.039062 33.316406 C 17.039062 33.316406 32.257812 63.753906 29.089844 96.101562 C 25.917969 128.449219 0.445312 206.480469 16.40625 231.203125 C 36.0625 261.648438 91.230469 279.402344 110.253906 289.554688 C 120.910156 295.238281 130.449219 301.449219 136.886719 305.875 C 143.324219 301.449219 152.859375 295.238281 163.519531 289.554688 C 182.539062 279.40625 237.707031 261.648438 257.363281 231.203125 C 273.328125 206.480469 247.851562 128.445312 244.683594 96.101562 C 241.511719 63.757812 256.730469 33.316406 256.730469 33.316406 L 199.03125 13.644531 L 169.21875 25.699219 Z M 136.886719 10.042969 " fill-opacity="1" fill-rule="nonzero"/></g><g clip-path="url(#2c4a3b6afe)"><path fill="#ffbe00" d="M 54.238281 188.972656 C 62.246094 196.980469 72.886719 201.523438 84.207031 201.765625 C 84.523438 201.769531 84.839844 201.773438 85.15625 201.773438 C 90.328125 201.773438 95.40625 200.871094 100.257812 199.085938 C 105.566406 197.132812 110.394531 194.195312 114.59375 190.363281 C 115.078125 189.925781 115.566406 189.457031 116.050781 188.972656 C 116.492188 188.53125 116.917969 188.082031 117.328125 187.640625 L 136.734375 168.234375 L 136.761719 168.257812 L 141.902344 162.925781 L 147.394531 157.625 L 147.371094 157.605469 L 166.816406 138.164062 L 166.925781 138.039062 C 167.21875 137.71875 167.535156 137.386719 167.867188 137.054688 C 168.195312 136.726562 168.527344 136.410156 168.851562 136.113281 L 168.863281 136.105469 C 180.605469 125.378906 198.628906 125.792969 209.886719 137.054688 C 221.46875 148.636719 221.46875 167.488281 209.886719 179.070312 C 198.628906 190.328125 180.605469 190.746094 168.863281 180.019531 L 168.851562 180.011719 C 168.527344 179.71875 168.199219 179.402344 167.867188 179.070312 C 167.539062 178.742188 167.222656 178.410156 166.925781 178.085938 L 166.816406 177.964844 L 161.085938 172.234375 L 167.285156 166.039062 L 145.203125 166.226562 L 145.015625 188.304688 L 151.1875 182.132812 L 156.6875 187.632812 C 157.09375 188.078125 157.527344 188.523438 157.964844 188.964844 C 158.445312 189.445312 158.933594 189.914062 159.417969 190.351562 C 163.617188 194.1875 168.441406 197.128906 173.757812 199.082031 C 178.613281 200.867188 183.683594 201.769531 188.859375 201.769531 C 189.175781 201.769531 189.492188 201.765625 189.808594 201.757812 C 201.128906 201.519531 211.769531 196.972656 219.777344 188.964844 C 223.945312 184.796875 227.179688 179.929688 229.378906 174.503906 C 231.503906 169.265625 232.578125 163.730469 232.578125 158.058594 C 232.578125 152.386719 231.5 146.855469 229.378906 141.613281 C 227.179688 136.1875 223.949219 131.320312 219.777344 127.152344 C 211.769531 119.144531 201.128906 114.601562 189.808594 114.359375 C 184.308594 114.242188 178.90625 115.140625 173.757812 117.035156 C 168.445312 118.992188 163.625 121.925781 159.429688 125.757812 C 158.941406 126.199219 158.453125 126.667969 157.964844 127.152344 C 157.523438 127.59375 157.09375 128.042969 156.6875 128.484375 L 137.476562 147.699219 L 137.464844 147.6875 L 127.105469 158.066406 L 107.320312 177.847656 L 107.203125 177.964844 L 107.09375 178.089844 C 106.800781 178.410156 106.484375 178.742188 106.152344 179.074219 C 105.824219 179.402344 105.492188 179.71875 105.167969 180.011719 L 105.15625 180.019531 C 93.414062 190.746094 75.394531 190.332031 64.136719 179.070312 C 58.523438 173.460938 55.433594 166 55.433594 158.066406 C 55.433594 150.128906 58.523438 142.667969 64.136719 137.058594 C 69.941406 131.253906 77.542969 128.332031 85.152344 128.332031 C 92.304688 128.332031 99.46875 130.914062 105.15625 136.109375 L 105.164062 136.117188 C 105.484375 136.410156 105.816406 136.726562 106.148438 137.058594 C 106.476562 137.386719 106.792969 137.71875 107.089844 138.042969 L 107.199219 138.167969 L 122.265625 153.230469 L 132.164062 143.332031 L 117.328125 128.496094 C 116.917969 128.054688 116.488281 127.605469 116.050781 127.164062 C 115.570312 126.683594 115.078125 126.21875 114.597656 125.777344 C 110.398438 121.941406 105.574219 119.003906 100.257812 117.046875 C 95.109375 115.15625 89.707031 114.253906 84.207031 114.371094 C 72.886719 114.609375 62.246094 119.15625 54.238281 127.164062 C 50.066406 131.332031 46.835938 136.199219 44.636719 141.625 C 42.511719 146.867188 41.4375 152.398438 41.4375 158.070312 C 41.4375 163.742188 42.515625 169.277344 44.636719 174.515625 C 46.839844 179.9375 50.066406 184.800781 54.238281 188.972656 Z M 54.238281 188.972656 " fill-opacity="1" fill-rule="nonzero"/></g></g></g></svg>