<svg xmlns="http://www.w3.org/2000/svg" xmlns:xlink="http://www.w3.org/1999/xlink" width="512" zoomAndPan="magnify" viewBox="0 0 384 383.999986" height="512" preserveAspectRatio="xMidYMid meet" version="1.0"><defs><clipPath id="edc428b9d2"><path d="M 58 35.015625 L 326 35.015625 L 326 349 L 58 349 Z M 58 35.015625 " clip-rule="nonzero"/></clipPath><clipPath id="79d82258cc"><path d="M 66 44 L 318 44 L 318 340.242188 L 66 340.242188 Z M 66 44 " clip-rule="nonzero"/></clipPath><clipPath id="a0a22b462e"><path d="M 96.429688 148.15625 L 287.679688 148.15625 L 287.679688 235.90625 L 96.429688 235.90625 Z M 96.429688 148.15625 " clip-rule="nonzero"/></clipPath></defs><g clip-path="url(#edc428b9d2)"><path fill="#ffbe00" d="M 191.96875 35.066406 L 157.652344 51.675781 L 126.011719 38.886719 L 64.773438 59.757812 C 64.773438 59.757812 80.925781 92.050781 77.5625 126.375 C 74.199219 160.695312 47.160156 243.488281 64.101562 269.714844 C 84.964844 302.019531 143.511719 320.855469 163.703125 331.628906 C 175.011719 337.660156 185.136719 344.246094 191.96875 348.945312 C 198.800781 344.246094 208.925781 337.660156 220.234375 331.628906 C 240.421875 320.859375 298.972656 302.019531 319.835938 269.714844 C 336.777344 243.488281 309.738281 160.691406 306.375 126.375 C 303.011719 92.054688 319.164062 59.757812 319.164062 59.757812 L 257.925781 38.886719 L 226.28125 51.675781 Z M 191.96875 35.066406 " fill-opacity="1" fill-rule="nonzero"/></g><g clip-path="url(#79d82258cc)"><path fill="#000000" d="M 191.9375 44.039062 L 159.59375 59.710938 L 129.765625 47.644531 L 72.046875 67.339844 C 72.046875 67.339844 87.269531 97.8125 84.097656 130.199219 C 80.929688 162.582031 55.445312 240.707031 71.410156 265.457031 C 91.074219 295.9375 146.265625 313.714844 165.292969 323.878906 C 175.957031 329.570312 185.496094 335.785156 191.9375 340.21875 C 198.375 335.785156 207.917969 329.570312 218.578125 323.878906 C 237.609375 313.71875 292.796875 295.941406 312.460938 265.457031 C 328.429688 240.707031 302.945312 162.582031 299.773438 130.199219 C 296.605469 97.816406 311.828125 67.339844 311.828125 67.339844 L 254.109375 47.644531 L 224.28125 59.710938 Z M 191.9375 44.039062 " fill-opacity="1" fill-rule="nonzero"/></g><g clip-path="url(#a0a22b462e)"><path fill="#ffffff" d="M 109.238281 222.976562 C 117.246094 230.984375 127.886719 235.527344 139.207031 235.769531 C 139.523438 235.777344 139.839844 235.777344 140.15625 235.777344 C 145.328125 235.777344 150.40625 234.875 155.253906 233.09375 C 160.566406 231.136719 165.394531 228.203125 169.59375 224.367188 C 170.074219 223.929688 170.566406 223.460938 171.046875 222.976562 C 171.492188 222.535156 171.917969 222.085938 172.324219 221.644531 L 191.730469 202.238281 L 191.757812 202.265625 L 196.902344 196.929688 L 202.390625 191.628906 L 202.371094 191.609375 L 221.8125 172.167969 L 221.925781 172.046875 C 222.21875 171.722656 222.535156 171.390625 222.863281 171.0625 C 223.191406 170.734375 223.523438 170.417969 223.847656 170.121094 L 223.859375 170.113281 C 235.605469 159.382812 253.625 159.800781 264.882812 171.0625 C 276.464844 182.644531 276.464844 201.492188 264.882812 213.078125 C 253.625 224.332031 235.605469 224.753906 223.859375 214.027344 L 223.847656 214.015625 C 223.527344 213.722656 223.195312 213.40625 222.863281 213.078125 C 222.535156 212.75 222.21875 212.417969 221.925781 212.09375 L 221.8125 211.96875 L 216.085938 206.242188 L 222.28125 200.042969 L 200.203125 200.230469 L 200.015625 222.308594 L 206.1875 216.136719 L 211.6875 221.636719 C 212.09375 222.082031 212.523438 222.527344 212.964844 222.972656 C 213.445312 223.453125 213.933594 223.917969 214.414062 224.355469 C 218.617188 228.191406 223.4375 231.132812 228.757812 233.085938 C 233.609375 234.871094 238.683594 235.773438 243.855469 235.773438 C 244.171875 235.773438 244.488281 235.769531 244.804688 235.765625 C 256.125 235.523438 266.765625 230.980469 274.777344 222.972656 C 278.945312 218.800781 282.175781 213.933594 284.378906 208.507812 C 286.5 203.269531 287.578125 197.738281 287.578125 192.0625 C 287.578125 186.390625 286.5 180.859375 284.378906 175.621094 C 282.175781 170.195312 278.949219 165.328125 274.777344 161.15625 C 266.765625 153.148438 256.125 148.609375 244.804688 148.363281 C 239.304688 148.246094 233.902344 149.148438 228.757812 151.042969 C 223.445312 152.996094 218.621094 155.929688 214.425781 159.761719 C 213.941406 160.203125 213.449219 160.671875 212.964844 161.15625 C 212.523438 161.601562 212.09375 162.046875 211.6875 162.492188 L 192.472656 181.703125 L 192.464844 181.695312 L 182.105469 192.070312 L 162.203125 211.972656 L 162.089844 212.09375 C 161.796875 212.417969 161.480469 212.75 161.152344 213.078125 C 160.824219 213.40625 160.492188 213.722656 160.167969 214.015625 L 160.15625 214.027344 C 148.414062 224.753906 130.394531 224.335938 119.136719 213.078125 C 113.523438 207.464844 110.433594 200.003906 110.433594 192.070312 C 110.433594 184.136719 113.523438 176.675781 119.136719 171.0625 C 124.941406 165.257812 132.539062 162.339844 140.148438 162.339844 C 147.304688 162.339844 154.46875 164.917969 160.15625 170.113281 L 160.164062 170.125 C 160.484375 170.417969 160.816406 170.734375 161.148438 171.0625 C 161.476562 171.390625 161.792969 171.722656 162.089844 172.046875 L 162.199219 172.171875 L 177.261719 187.234375 L 187.160156 177.335938 L 172.324219 162.503906 C 171.917969 162.058594 171.488281 161.613281 171.046875 161.167969 C 170.566406 160.6875 170.078125 160.222656 169.597656 159.78125 C 165.394531 155.949219 160.574219 153.007812 155.253906 151.054688 C 150.105469 149.160156 144.707031 148.261719 139.207031 148.375 C 127.886719 148.617188 117.246094 153.160156 109.238281 161.167969 C 105.066406 165.339844 101.835938 170.207031 99.636719 175.632812 C 97.511719 180.871094 96.4375 186.402344 96.4375 192.074219 C 96.4375 197.75 97.515625 203.28125 99.636719 208.519531 C 101.839844 213.941406 105.066406 218.808594 109.238281 222.976562 Z M 109.238281 222.976562 " fill-opacity="1" fill-rule="nonzero"/></g></svg>